<svg version="1" xmlns="http://www.w3.org/2000/svg" width="1066.667" height="1066.667" viewBox="0 0 800.000000 800.000000"><path d="M395.8 60.5c-.2.2-3 .6-6.3.9-3.3.4-7.6.8-9.5 1.1-4.3.5-11.8 1.3-19 2-3 .3-6.6.7-8 1-1.4.2-5 .7-8 1-7.8.8-13.1 1.5-16 2-1.4.2-4.5.7-7 1-4.4.6-28.4 5-32.7 6-1.3.3-3.3.7-4.4 1-8.8 1.9-20.5 5.3-32.9 9.6-8 2.7-21.9 7.2-31 9.9-9.1 2.6-18.7 5.6-21.5 6.5-2.7 1-5.4 1.9-6 2-.5.1-1.9.5-3 1-28.9 11.1-40 16.5-55 26.5-5.5 3.7-17.4 11.6-26.5 17.5-24.6 16-39.5 29.3-48.8 43.6-2.1 3.2-4.2 5.6-4.6 5.2-.4-.4-.4 0 0 1 .3.9.2 1.7-.3 1.7s-1 .6-1.1 1.2c0 .7-.3 2.6-.6 4.3-.3 1.6-.9 4.6-1.3 6.5-.3 1.9-.7 3.9-.8 4.5-2.6 11.2-2.8 28.6-.5 37.5 1 3.9 2.4 7.7 3 8.5.8 1 .9 1.5.2 1.5-.6 0-1.4-1-1.7-2.1-.4-1.3-1-1.7-1.4-1.1-.4.6-3.2-1.3-7.1-4.7-6.1-5.5-6.7-5.8-11-5.4-8 .6-11.1 1-11.7 1.6-.3.3.7 2.8 2.3 5.4 7.9 13.2 9.9 17.1 9.3 17.8-.3.2-2.3.7-4.4.9-2.2.3-5.7.8-7.7 1.1-2.1.3-5.5.7-7.5 1-2 .3-3.9.7-4.1.9-.5.6 2 8.9 3 10 .4.6.8 1.8.8 2.7 0 1.9 1.5 2.6 7.4 3.4 2.1.2 4 .6 4.2.8.5.4-14.2 14.7-20.4 19.9l-4.3 3.6 5.8 3.6c3.1 2 6.7 3.6 7.8 3.7 2.9 0 10.9 1.1 11.3 1.4.2.2-1.3 3.4-3.4 7.2-2 3.7-4.5 8.4-5.4 10.3-1 1.9-4.6 6.3-7.9 9.7-3.4 3.5-6.1 7-6.1 7.8 0 2.5 3.8 9.2 5.5 9.9.9.3 6.3.6 12 .6h10.4l-.4 6.7c-.3 3.8-.7 11.3-1 16.8-.5 10.6-1.3 20-2 22.5-.3 1.4-.8 4.9-2 15-.3 2.5-1 7.8-1.5 11.8-.9 6.6-.8 8.1 1.6 15.5 1.4 4.5 3 9.3 3.5 10.7.6 1.3 1.2 7.2 1.5 13l.4 10.5-10.7 4.2c-6 2.3-10.7 4.6-10.6 5 0 .4.4 5.1.7 10.3.7 10.3 1.4 18.8 2.1 26.2.2 3.2 1.3 6 3.2 8.4 2.7 3.6 2.7 3.7.4 2.9l-2.3-.7.6 10.8c.9 15 1.4 20.2 3.1 33.4 1.7 13.7 9 31.5 16.6 41 2.4 3.1 5.5 7.8 6.9 10.4 3.6 7.1 12.2 16 20.9 21.6 4.2 2.7 8.1 5.3 8.6 5.7.6.4 1.5.9 2 1 2 .6 40.4 16.2 50.5 20.6 12.9 5.6 26.7 9.9 42.4 13.2 11.3 2.4 33 6 42.6 7 2.5.3 5.6.8 7 1 1.4.3 4.3.8 6.5 1 7.1.9 24.8 4.2 37 7 6.7 1.5 9 1.8 20 3.1 3.3.4 6.7.8 7.5 1 .8.1 2.5.3 3.8.3 1.6.1 2.1.5 1.6 1.3-.6 1-.5 1 .8.1.8-.7 1.7-1.1 1.9-.8.3.2 2.6.5 5.2.6 2.6.2 4.7.5 4.7.8 0 .3 4.4.7 9.7.9 5.4.2 10.3.8 11 1.4.8.6 1.3.6 1.3.1s.7-1 1.5-1 1.2.4.9.8c-.2.4 1.2.5 3.2.2 2.5-.4 3.9-.2 4.5.8.5.8.9.9.9.3 0-1.2 2.9-1.2 4.8 0 .6.4 1.2.4 1.2-.1 0-1.2 9.4-.2 10.2 1.1.6.8.8.7.8-.2 0-.6.5-1.2 1.1-1.2.5 0 .8.4.5.8-.2.4.4.8 1.4.8 1 0 1.6-.4 1.4-.8-.3-.4 1-.5 2.8-.2 1.8.3 3.9.5 4.6.5 3.1-.2 4-.2 7.9 0 2.9.1 4.3.6 4.6 1.8.4 1.3.5 1.2.6-.3.1-1.6.3-1.7 1.8-.5.9.8 1.4.9 1 .3-.4-.7.8-1 3.4-1 3 .1 3.8.4 3.4 1.6-.3.9.1.7 1-.4 1.5-2 1.5-2 1.6 0 0 1.8.1 1.8.9-.1.6-1.3.9-1.5.9-.5.1.9.4 1.1.9.5.4-.6 2.6-1.1 4.8-1.1 3.3 0 4.1.3 3.7 1.6-.4 1.3-.3 1.3.9 0 1.3-1.5 6.3-1.6 5.4-.1-.3.4.1.8.8.8.8 0 1.2-.7.8-1.5-.4-1.1-.2-1.3.9-.7.8.5 2.7.8 4.4.7 2.2-.2 2.6 0 1.6.7s-.8.9 1.2.8c2.1-.2 2.3-.5 1.4-1.7-.8-1-.3-.9 1.7.4 1.6 1 2.5 1.3 2.2.7-1-1.5.7-1.4 2.3.1 1.1 1 1.3 1 .7 0-.5-.8.2-1.2 2.4-1.2 2.2 0 2.9.4 2.4 1.2-.6 1-.5 1 .7.1 1.2-1 1.8-1 2.9 0 1 .9 1.1.9.6-.1-.5-.7-.1-1.2.9-1.2s1.4.5.9 1.2c-.6 1-.4 1 .7.1 1.8-1.7 6.3-1.7 5.3-.1-.5.9-.2.8.9-.1 1-.7 4.5-1.5 7.8-1.6 3.8-.2 5.6.1 4.8.6-1 .6-.6.8 1.1.5 1.4-.3 2.5-.5 2.5-.6 0-.1.8-.3 1.8-.5.9-.2 1.5.1 1.2.6-.3.5 1.2.8 3.3.6 3-.1 3.8-.6 3.4-1.7-.4-1.3-.3-1.3 1.1 0 1.1 1 3.1 1.4 6.3 1.1 3-.2 4.2-.6 3.3-1.1-.8-.6-.1-.8 1.9-.6 1.7.1 3.5.5 3.8.9.4.4 1.4.7 2.3.6 1.2 0 1.1-.3-.4-.9-1.9-.8-1.9-.9.3-.9 1.2-.1 2.2.3 2.2.8 0 1 3.2 1 4 0 .3-.4 1.6-.9 3-1.3l2.5-.7-2.5 1.5c-2.4 1.4-2.3 1.4 2 .9 2.5-.3 5-1.2 5.7-2 .6-.8 1.4-1 1.7-.4.3.5 0 1.2-.6 1.4-.7.3 1.6.3 5.2.1 3.5-.3 6.8-1.1 7.2-1.7.6-.9.8-.9.8 0 0 .7 1.3 1.1 3.4 1 1.9-.1 3.2-.5 2.9-1-.2-.4 1.3-.5 3.4-.2 2.8.4 3.4.3 2.3-.4-.9-.7-1-1.1-.3-1.1.6 0 1.5.4 1.8 1 .3.5 1.1 1 1.6 1 .6 0 .7-.5.4-1-.8-1.3 1.7-.9 2.6.4.4.5 1.3.5 2 0 .8-.5 2.4-.7 3.7-.5 1.3.1 2.2-.3 2.2-1.1s.3-.9.8-.3c.9 1.3 4.4 1.6 3.6.3-.3-.5.5-.6 1.9-.2 3.2.7 7-.4 6.1-1.8-.4-.7-.2-.8.5-.4.6.4.8 1.2.5 1.8-.9 1.4 3.9-.1 4.8-1.6.5-.7.8-.8.8 0 0 .6 1.2 1 2.8.9 2.2-.1 12.4-1.6 14.2-2 .3-.1 2.5-.5 5-.9 2.4-.5 5.1-1.6 5.8-2.5.7-.9 1-1 .7-.3-1 1.9 3.6 1.2 5.3-.8.8-.8 1.1-.9.7-.3-.4.8 0 1.3.9 1.3 2 0 3-1.7 1.4-2.3-1-.4-1-.6 0-.6.7-.1 1.5.6 1.8 1.4.5 1.1 1.1 1.2 2.5.4 1-.5 1.9-.8 1.9-.5 0 .2 1.6 0 3.6-.6 2-.5 4.4-1.1 5.3-1.3.9-.1 3.6-.6 6.1-1.1 2.5-.4 4.8-.9 5.3-1 .4-.1 1.4-.2 2.3-.3.9-.1 1.2-.6.8-1.4-.5-.9-.4-.9.5-.1.9.9 3 .7 8.1-.6 3.8-1 7.1-1.5 7.4-1.2.4.3.6-.3.7-1.4 0-1 .3-1.3.6-.7.2.7.9 1.3 1.4 1.3.6 0 .8-.4.5-.9-.3-.4.8-.7 2.5-.5 1.6.2 2.8 0 2.4-.5-.3-.5.5-.7 1.7-.3 1.6.4 1.9.2 1.3-.8-.5-.8-.4-1.1.2-.7 1.4.9 7.4-.3 6.8-1.3-.2-.4.7-.6 2-.4 1.4.1 2.5-.2 2.5-.7 0-.6.4-.8.9-.5.5.3 1.1-.1 1.5-.9.3-.8 1.1-1.5 1.8-1.5.9 0 .9.3-.2 1.1s-.9.9 1 .3c1.4-.4 2.7-.9 3-1.3.3-.3 1-.6 1.5-.6 2.4-.1 8.5-2.7 8-3.6-.4-.5.2-.6 1.1-.2 1.3.5 1.5.3.9-.7-.5-.9-.4-1.1.4-.6 1.1.7 7.1-1.3 7.1-2.4 0-.3.8-.6 1.8-.7 2.6-.2 11.3-5.8 10.5-6.7-.4-.4 0-.4.9-.1.9.4 1.9.2 2.3-.4.3-.6 1.7-1.1 3.1-1.1 1.4 0 2.3-.4 2-.9-.3-.4.6-.6 1.9-.3 1.5.2 2.5 0 2.5-.7s-.4-.9-1-.6c-.6.3-.7-.1-.4-1 .6-1.4.8-1.4 2 .2.8 1 1.3 1.3 1.4.6 0-.7.7-1 1.5-.7.8.4 1.7-.1 2.1-.9.3-.9 1.2-1.3 2-1 2.6 1 17.4-10.8 17.4-13.8 0-.7.3-1 .6-.6.9.8 2.3-.8 6.5-7.3 3.6-5.6 8.2-17.4 7.1-18.4-.3-.3 0-.6.5-.6.6 0 1-.8.9-1.8-.2-.9.1-2 .5-2.3.5-.3 1-2.8 1.1-5.6.2-2.8.7-4.8 1.2-4.5.5.3.7-.5.4-1.6-.4-1.2-.3-2.2 0-2.2.4 0 .7-1.3.7-3 .1-1.6-.4-3-.9-3s-.2-.6.9-1.3c1.3-1 1.5-1.6.6-2.1-.6-.4-.8-1.3-.4-1.9 1.6-2.7 1.8-23.1.2-34.1-1.1-7.4-1.1-8 .8-9.5 2.1-1.6 3.6-3.7 16.2-22.3 5.4-8 7-11.3 6.6-13-.3-1.3-.7-4.6-1-7.3-1.9-21.2-1.2-18.9-8.1-27.8-6.5-8.2-7.6-10.7-4.8-10.7.8 0 1.3-.4 1-.8-.7-1.2 1.2-3.8 2.1-2.9.4.5.2 1.1-.4 1.5-.9.5-.5 1.2 1 2.1 2.1 1.3 2.1 1.3.7-.4-1.4-1.7-1.3-1.8.3-1.2 1 .4 1.6.3 1.2-.2-.3-.5-.2-1.1.2-1.4.5-.2.3-.2-.4-.1-.7.2-1.5-.1-1.8-.5-.7-1.2 2.4-2.3 3.7-1.4.7.4.8.1.4-.6-.5-.7 0-1.8 1-2.6 1.1-.8 1.5-1.5 1-1.5s-.1-.9.9-2c1.8-2 1.8-2.1-.1-1.5-1.9.7-1.9.6 0-.9s1.1-2.2-1.8-1.7c-.5.1-.6-.5-.2-1.4.3-.9.2-1.3-.4-1-.6.3-1 .2-1-.3 0-.6.7-1.3 1.6-1.6 2.2-.9 2.4-.8 1.8.8-.3.8-.1 1.6.4 2 .5.3.8-.5.7-1.6-.1-1.2-.7-2.4-1.4-2.6-.9-.3-.9-.7 0-1.8s.9-1.8.1-2.6c-1.6-1.6-1.5-3.1.1-2.2.9.6.9.4-.1-.8-1-1.3-1-1.7 0-2 .8-.3.7-.6-.4-1.1-1.3-.4-1.6-.1-1.3 1.4.2 1-.1 1.9-.8 1.9-.8 0-.8.3.1 1.2 1.5 1.5 1.6 3.2.2 2.3-.5-.3-1-.1-1 .4 0 .6.4 1.1.8 1.1.5 0 .9.7.9 1.5 0 2.1-1.4 1.9-2-.3-.3-.9-.4.3-.2 2.6.3 3.6.2 4.2-.9 3.3-1.1-.9-1.2-2.1-.4-5.4.5-2.3 1.2-5.3 1.4-6.7.2-1.4.6-3.9.9-5.7.3-1.7 3.7-7.9 7.5-13.7 3.9-5.8 7-10.9 7-11.4 0-.9-3.8-13.7-7-23.2-1-3-2.1-6.9-2.4-8.6-.7-3.1-.6-3.1 3.8-3.6 7.3-.9 7.6-1.4 7.1-13.8-.5-13.2-1.1-16-3.5-16-4.2 0-9.9-5.1-9.5-8.5.4-3.3 2.2-8.8 5-15.6l3.3-7.6-3.2-7.4c-3.4-7.9-3.4-8.2-.5-17.8 1.1-3.5 1.8-6.5 1.7-6.7-.5-.4-13.1-3.5-15.8-3.8-3.8-.4-4-.5-4-1.7 0-.5.5-.7 1-.4.6.3 1 .1 1-.4 0-.6-.5-1.1-1.1-1.1-.6 0-.8-.7-.5-1.6.3-.9.3-2.1 0-2.6-1.2-1.9-1.2-8.8 0-8.8.6 0 .3-.5-.7-1.1-1.5-.9-1.6-1.3-.5-2.7 1.1-1.3 1.1-1.4-.1-.7-1.1.6-1.3.4-.8-.8.3-1 .3-1.7-.1-1.7s-.9-1.1-1-2.4c-.5-6.7-10-32.4-22.9-62.2-3.9-8.7-8.2-18.9-9.7-22.7-1.6-3.7-3.2-6.7-3.7-6.7s-.9-.9-.9-2c0-1.2-.7-2-1.6-2-1 0-1.4-.5-1-1.6.3-.8.2-1.3-.3-1-.5.3-1.9-.7-3.2-2.3-3.4-4-15.4-13.2-30.9-23.8-7.4-5.1-16.1-11.4-19.2-14-14.1-12-38.7-23.9-64.3-31.1-5.3-1.6-23.9-6-27.5-6.7-.3 0-5.7-1.3-12-2.9-10.4-2.5-21.9-5.2-25.9-6.1-.9-.2-4.7-1.1-8.6-2-3.8-.9-11-2.4-16-3.4-4.9-1-12.4-2.6-16.5-3.5-4.1-.8-8.6-1.7-10-2-1.4-.2-7.2-1.4-13-2.5s-11.6-2.2-13-2.5c-1.4-.2-5.2-.9-8.5-1.5-10-1.9-10.6-2-44-7.7-1.6-.3-4.3-.7-6-1-3.5-.7-15.3-1.3-15.7-.9zm-231 406.2c-1 .2-2.8.2-4 0-1.3-.2-.5-.4 1.7-.4 2.2-.1 3.2.1 2.3.4zm13.2.7c18.3 1.3 22.4 1.6 22.9 2.2.5.5-18.5-.4-25.9-1.1-1.4-.2-3.7-.3-5.2-.4-1.6-.1-2.8-.6-2.8-1.2 0-.5.3-.8.8-.6.4.3 5 .7 10.2 1.1zm65.5 2.3c-.2 1-.5 3.8-.6 6.3-.2 4.4-.2 4.5-.6.7-.2-2-.7-3.7-1.1-3.8-1.9-.1-9.8-.7-19.2-1.4-5.8-.4-10.7-.9-11-1.2-.5-.6 19.2.5 24.5 1.3 2.2.3 3.7-.1 5-1.5 2.5-2.5 3.4-2.6 3-.4zm-38.5-.3c0 1.1-1.9 1.5-2.5.6-.3-.5.1-1 .9-1 .9 0 1.6.2 1.6.4zm4.4.8c-.3.4-.9.8-1.5.8-.5 0-.9-.4-.9-.8 0-.5.7-.9 1.5-.9s1.2.4.9.9zm182.4.5c-1 .2-2.6.2-3.5 0-1-.3-.2-.5 1.7-.5s2.7.2 1.8.5zm389.8 5.8c-.3.8 0 1.5.5 1.7.6.2 0 1.7-1.3 3.3-1.2 1.6-1.7 2.6-1 2.1.6-.4 1.2-.2 1.2.3 0 .6-.2 1.1-.4 1.1s-1.2.3-2.1.7c-1.5.5-1.6.3-.6-1.6.7-1.2.9-2.7.5-3.3-.4-.6-.3-.8.3-.5.6.4 1.4 0 1.7-.9.5-1.2.2-1.5-1.1-1-1.5.5-1.5.4.1-.9 1.1-.8 1.4-1.5.7-1.5s-.9-.5-.6-1c.9-1.4 2.7-.1 2.1 1.5zm3.6-.1c-.4.6-.7 2-.7 3.1.1 1.9-1.2 3.5-2.8 3.5-.5 0-.2-.9.6-2.1.8-1.1 1.3-2.8 1-3.8-.3-1.1.1-1.8 1.1-1.8.9 0 1.3.5.8 1.1zM73.7 489.6c-.3.3-1.2.4-1.9.1-.8-.3-.5-.6.6-.6 1.1-.1 1.7.2 1.3.5zm12 2c-.3.3-1.2.4-1.9.1-.8-.3-.5-.6.6-.6 1.1-.1 1.7.2 1.3.5zM737 679c0 .5-.5 1-1.1 1-.5 0-.7-.5-.4-1 .3-.6.8-1 1.1-1 .2 0 .4.4.4 1zm-4 4.5c0 .7-3 1.3-3.4.7-.3-.4.4-.9 1.5-.9 1-.1 1.9 0 1.9.2zm-30 11.9c0 .2-.7.7-1.6 1-.8.3-1.2.2-.9-.4.6-1 2.5-1.4 2.5-.6zM466 738c0 .5-.5 1-1.1 1-.5 0-.7-.5-.4-1 .3-.6.8-1 1.1-1 .2 0 .4.4.4 1z"/><path d="M774 285.7c.7.3.7 1.1 0 2.4-.7 1.3-.7 1.9 0 1.9.5 0 1-.7 1-1.5s0-1.8.1-2.2c0-.4-.4-.8-1-1-.7-.1-.7.1-.1.4zM774.6 292.6c-.5 1.4-.4 1.5.9.4 1.7-1.4 1.9-2 .6-2-.5 0-1.2.7-1.5 1.6zM776 296c0 .5.5 1 1.1 1 .5 0 .7-.5.4-1-.3-.6-.8-1-1.1-1-.2 0-.4.4-.4 1zM776 492c-.8.5-1.1 1.3-.6 1.7.5.4 1.1.2 1.3-.5.4-1 .8-1 2.1 0 1.5 1.2 1.6 1.1.3-.5-.7-.9-1.4-1.7-1.5-1.7 0 0-.8.4-1.6 1zM359.8 739.7c.7.3 1.6.2 1.9-.1.4-.3-.2-.6-1.3-.5-1.1 0-1.4.3-.6.6zM397.6 740.2c.3.5 1 .6 1.5.3 1.3-.9 1.1-1.2-.6-1.2-.8 0-1.2.4-.9.9zM449.6 740.1c.4.8 3 .6 3.8-.2.3-.3-.5-.5-1.9-.5-1.3 0-2.2.3-1.9.7z"/></svg>